<?xml version="1.0" encoding="UTF-8"?>
<svg xmlns="http://www.w3.org/2000/svg" xmlns:xlink="http://www.w3.org/1999/xlink" width="150pt" height="150pt" viewBox="0 0 150 150" version="1.1">
<g id="surface1">
<path style=" stroke:none;fill-rule:nonzero;fill:rgb(0.392157%,0%,0.784314%);fill-opacity:1;" d="M 75 0 C 48.902344 0 27.742188 21.15625 27.742188 47.242188 C 27.742188 73.347656 75 150 75 150 C 75 150 122.257812 73.347656 122.257812 47.242188 C 122.257812 21.15625 101.105469 0 75 0 Z M 75 83.796875 C 54.886719 83.796875 38.515625 67.429688 38.515625 47.3125 C 38.515625 27.191406 54.886719 10.828125 75 10.828125 C 95.117188 10.828125 111.484375 27.191406 111.484375 47.3125 C 111.484375 67.429688 95.117188 83.796875 75 83.796875 Z M 75 83.796875 "/>
<path style=" stroke:none;fill-rule:nonzero;fill:rgb(0.392157%,0%,0.784314%);fill-opacity:1;" d="M 89.5625 29.417969 L 94.386719 34.34375 L 94.386719 59.820312 C 94.386719 60.238281 94.300781 60.535156 94.125 60.710938 C 93.714844 61.113281 92.699219 61.085938 92.175781 61.082031 C 91.039062 61.082031 90.1875 60.859375 89.78125 60.457031 C 89.523438 60.183594 89.511719 59.910156 89.523438 59.820312 L 89.523438 35.0625 L 85.253906 35.0625 L 85.253906 22.878906 L 61.507812 22.878906 L 61.507812 66.71875 L 56.339844 66.71875 L 56.339844 72.808594 L 90.4375 72.808594 L 90.4375 66.71875 L 85.253906 66.71875 L 85.253906 37.492188 L 87.078125 37.492188 L 87.078125 59.71875 C 87.070312 59.851562 87.015625 61.027344 87.960938 62.070312 C 88.855469 63.03125 90.257812 63.519531 92.148438 63.519531 L 92.511719 63.523438 C 93.410156 63.523438 94.835938 63.414062 95.828125 62.445312 C 96.488281 61.796875 96.820312 60.917969 96.820312 59.816406 L 96.820312 33.34375 L 91.296875 27.710938 Z M 82.203125 39.929688 L 65.15625 39.929688 L 65.15625 27.753906 L 82.203125 27.753906 Z M 82.203125 39.929688 "/>
</g>
</svg>
