<?xml version="1.0" encoding="UTF-8"?>
<svg xmlns="http://www.w3.org/2000/svg" xmlns:xlink="http://www.w3.org/1999/xlink" width="40pt" height="40pt" viewBox="0 0 100 100" version="1.1">
<g id="surface1">
<path style=" stroke:none;fill-rule:nonzero;fill:rgb(0.392157%,0%,0.784314%);fill-opacity:1;" d="M 50 0 C 32.601562 0 18.496094 14.105469 18.496094 31.492188 C 18.496094 48.898438 50 100 50 100 C 50 100 81.503906 48.898438 81.503906 31.492188 C 81.503906 14.105469 67.40625 0 50 0 Z M 50 55.867188 C 36.589844 55.867188 25.679688 44.953125 25.679688 31.542969 C 25.679688 18.128906 36.589844 7.21875 50 7.21875 C 63.410156 7.21875 74.324219 18.128906 74.324219 31.542969 C 74.324219 44.953125 63.410156 55.867188 50 55.867188 Z M 50 55.867188 "/>
<path style=" stroke:none;fill-rule:nonzero;fill:rgb(0.392157%,0%,0.784314%);fill-opacity:1;" d="M 59.707031 19.613281 L 62.925781 22.898438 L 62.925781 39.882812 C 62.925781 40.160156 62.867188 40.355469 62.75 40.472656 C 62.476562 40.742188 61.800781 40.726562 61.449219 40.722656 C 60.695312 40.722656 60.125 40.570312 59.855469 40.304688 C 59.683594 40.121094 59.671875 39.9375 59.683594 39.882812 L 59.683594 23.375 L 56.835938 23.375 L 56.835938 15.253906 L 41.007812 15.253906 L 41.007812 44.480469 L 37.558594 44.480469 L 37.558594 48.539062 L 60.292969 48.539062 L 60.292969 44.480469 L 56.835938 44.480469 L 56.835938 24.996094 L 58.054688 24.996094 L 58.054688 39.8125 C 58.046875 39.898438 58.007812 40.6875 58.640625 41.378906 C 59.238281 42.019531 60.171875 42.34375 61.429688 42.34375 L 61.671875 42.347656 C 62.273438 42.347656 63.226562 42.277344 63.886719 41.628906 C 64.324219 41.199219 64.546875 40.609375 64.546875 39.878906 L 64.546875 22.230469 L 60.863281 18.472656 Z M 54.800781 26.621094 L 43.4375 26.621094 L 43.4375 18.503906 L 54.800781 18.503906 Z M 54.800781 26.621094 "/>
</g>
</svg>
